<?xml version="1.0" standalone="no"?>
<!DOCTYPE svg PUBLIC "-//W3C//DTD SVG 20010904//EN"
 "http://www.w3.org/TR/2001/REC-SVG-20010904/DTD/svg10.dtd">
<svg version="1.0" xmlns="http://www.w3.org/2000/svg"
 width="258.000000pt" height="160.000000pt" viewBox="0 0 258.000000 160.000000"
 preserveAspectRatio="xMidYMid meet">
<metadata>
Created by potrace 1.10, written by Peter Selinger 2001-2011
</metadata>
<g transform="translate(0.000000,160.000000) scale(0.100000,-0.100000)"
fill="#000000" stroke="none">
<path d="M1280 1413 c-31 -12 -71 -58 -80 -94 -13 -49 -2 -143 22 -194 11 -22
68 -87 128 -145 116 -113 130 -137 130 -233 0 -38 -5 -53 -26 -74 -23 -23 -31
-25 -89 -21 -91 6 -105 21 -105 116 0 69 -2 76 -30 102 -27 25 -38 28 -116 31
-104 5 -114 14 -114 106 0 82 19 103 89 103 36 0 51 4 55 16 11 28 -13 44 -68
44 -100 0 -146 -53 -146 -167 0 -120 47 -163 179 -163 38 0 73 -4 76 -10 3 -5
7 -40 8 -78 5 -116 53 -162 170 -162 79 0 125 16 155 55 19 23 22 41 22 112 0
113 -17 144 -150 273 -116 113 -130 137 -130 233 0 71 29 97 110 97 51 0 65
-4 85 -25 22 -21 25 -33 25 -90 0 -37 5 -75 10 -86 18 -33 64 -49 140 -49 94
0 110 -15 110 -102 0 -35 -4 -68 -8 -74 -13 -20 -50 -34 -92 -34 -44 0 -61
-19 -40 -45 17 -21 97 -19 140 3 46 23 70 72 70 145 0 122 -46 167 -172 167
-92 0 -98 6 -98 104 0 61 -3 69 -34 104 -34 37 -35 37 -123 39 -48 1 -95 0
-103 -4z"/>
<path d="M1480 362 c0 -26 -3 -28 -30 -24 -41 6 -70 -21 -70 -63 0 -46 25 -64
88 -63 l52 0 0 89 c0 82 -1 89 -20 89 -15 0 -20 -7 -20 -28z m-5 -87 c0 -25
-4 -30 -24 -30 -32 0 -49 28 -31 50 7 9 23 15 34 13 16 -2 21 -10 21 -33z"/>
<path d="M1650 360 c0 -28 -2 -29 -30 -23 -41 8 -70 -19 -70 -63 0 -48 21 -63
85 -63 l55 1 0 89 c0 82 -1 89 -20 89 -16 0 -20 -7 -20 -30z m-5 -85 c0 -25
-4 -31 -27 -33 -19 -2 -28 2 -33 18 -8 27 12 52 39 48 16 -2 21 -10 21 -33z"/>
<path d="M390 295 l0 -85 60 0 c51 0 65 4 85 25 35 34 33 78 -4 116 -26 25
-37 29 -85 29 l-56 0 0 -85z m108 39 c44 -31 18 -94 -39 -94 -29 0 -29 1 -29
55 0 51 2 55 23 55 12 0 33 -7 45 -16z"/>
<path d="M1030 295 l0 -85 61 0 c33 0 69 5 80 10 23 13 25 56 3 68 -11 6 -13
11 -5 16 18 12 13 54 -8 66 -11 5 -45 10 -75 10 l-56 0 0 -85z m110 35 c0 -16
-7 -20 -35 -20 -28 0 -35 4 -35 20 0 16 7 20 35 20 28 0 35 -4 35 -20z m8 -72
c3 -15 -4 -18 -37 -18 -35 0 -41 3 -41 21 0 17 5 20 37 17 27 -2 39 -8 41 -20z"/>
<path d="M600 320 c-25 -25 -26 -72 -2 -93 25 -23 85 -22 105 1 39 43 5 112
-53 112 -17 0 -39 -9 -50 -20z m79 -27 c12 -23 -4 -53 -29 -53 -25 0 -41 29
-29 52 12 23 45 23 58 1z"/>
<path d="M752 328 c-29 -29 -2 -68 48 -68 13 0 20 -5 17 -12 -2 -7 -17 -12
-33 -11 -16 2 -36 0 -44 -3 -23 -8 8 -24 50 -24 46 0 63 12 58 41 -2 18 -12
26 -40 33 -48 12 -50 30 -3 24 32 -4 53 11 38 26 -11 11 -79 6 -91 -6z"/>
<path d="M887 322 c-22 -25 -21 -75 1 -95 20 -18 78 -22 101 -8 20 13 -6 26
-46 22 -24 -2 -33 2 -33 13 0 11 8 13 35 9 52 -8 67 1 54 34 -6 15 -16 31 -22
35 -22 14 -74 8 -90 -10z m81 -29 c2 -9 -8 -13 -32 -13 -28 0 -34 3 -29 16 7
18 54 16 61 -3z"/>
<path d="M1220 286 c0 -31 5 -58 13 -64 7 -6 36 -11 65 -10 l52 0 0 64 c0 57
-2 64 -19 64 -17 0 -20 -8 -23 -47 -3 -40 -6 -48 -25 -51 -26 -4 -38 25 -28
68 6 26 4 30 -14 30 -19 0 -21 -6 -21 -54z"/>
<path d="M1731 275 c31 -66 31 -90 -1 -82 -18 5 -35 -15 -23 -27 11 -11 60 -6
71 7 9 11 72 154 72 163 0 2 -8 4 -18 4 -13 0 -23 -13 -32 -41 -8 -22 -17 -42
-21 -44 -3 -3 -12 16 -19 40 -10 37 -17 45 -36 45 l-23 0 30 -65z"/>
</g>
</svg>
